<?xml version="1.0" encoding="utf-8"?>
<!-- Created with Inkscape (http://www.inkscape.org/) -->
<svg width="512" height="512" version="1.2" viewBox="0 0 512 512" baseProfile="tiny-ps" xmlns="http://www.w3.org/2000/svg">
  <title>karancorp</title>
  <g transform="translate(0,10)" stroke-width="2.7621">
    <path d="m0.95424 256v-252.76h510.09v505.51h-510.09z" fill="#fdfcfc" />
    <path d="m361.84 490.95c-15.092-4.2368-30.163-15.897-51.286-39.681l-21.47-24.174-22.896 8.0586c-32.578 11.466-60.848 15.398-82.88 11.525-14.579-2.5627-18.369-2.3751-20.665 1.0229-6.8621 10.155-42.39 21.054-53.085 16.285-8.5026-3.7913-10.143-12.407-6.5792-34.557l3.051-18.964-11.392-18.903c-26.795-44.46-32.677-108.32-14.801-160.7 11.441-33.527 39.715-82.592 66.527-115.44 9.7139-11.903 12.79-18.251 15.064-31.096 1.5721-8.8772 2.2138-16.896 1.426-17.82-0.78778-0.92391-10.96-1.2936-22.604-0.82162-23.969 0.9716-34.567-2.8716-45.47-16.49-13.087-16.345-20.659-56.181-8.2605-43.455 2.9213 2.9985 18.97 8.2636 33.208 10.895 9.5506 1.765 68.017-2.0652 95.72-6.2707 13.779-2.0917 15.831 0.96208 12.452 18.534-1.2073 6.2782-1.6999 12.355-1.0947 13.503 0.60524 1.1485 10.003-2.3881 20.885-7.8592 25.462-12.802 53.203-19.324 82.198-19.324 12.703 0 25.16-1.5116 27.683-3.3591 3.5322-2.5871 6.4096-2.2533 12.519 1.4521 4.3632 2.6462 13.368 6.9754 20.011 9.6206 23.8 9.4767 64.832 33.703 64.832 38.279 0 7.7012-4.0477 8.1633-30.646 3.4989l-25.794-4.5233-22.151 27.31c-26.245 32.358-67.235 74.238-106.95 109.28-15.781 13.922-28.693 25.938-28.693 26.702 0 3.3282 35.253 73.818 49.182 98.34 22.616 39.817 21.005 38.245 32.274 31.502 16.898-10.11 48.07-42.32 77.531-80.11 13.065-16.759 21.22-20.796 18.129-8.9736-0.9678 3.7016-7.8036 21.551-15.191 39.666-10.829 26.555-16.822 37.043-30.931 54.134-9.6248 11.659-21.511 24.724-26.413 29.033l-8.9136 7.8348 12.739 15.421c17.321 20.968 33.249 32.643 44.482 32.607 10.04-0.0323 29.902-10.129 43.239-21.98 9.7666-8.6786 13.009-7.9578 13.009 2.8918 0 11.474-6.2081 23.024-20.445 38.036-21.383 22.547-48.787 34.345-67.546 29.079zm-134-97.509c11.478-2.5537 23.692-5.9014 27.141-7.4393l6.2709-2.7962-17.471-30.699c-9.609-16.884-25.256-45.928-34.772-64.542-9.5155-18.614-17.825-33.228-18.466-32.477s-6.1463 30.787-12.234 66.746c-7.3822 43.603-10.243 66.566-8.5887 68.941 5.1838 7.4428 30.425 8.4263 58.12 2.2647zm-99.377-116.46c9.1297-52.866 9.5906-61.418 2.5007-46.404-11.139 23.59-19.192 69.191-14.818 83.909 1.4916 5.0182 3.15 8.6102 3.6854 7.9823 0.5354-0.62792 4.4197-21.097 8.6317-45.488zm102.75-90.51c34.102-30.574 72.483-73.978 91.258-103.2 8.3261-12.959 15.138-24.978 15.138-26.709 0-3.3613-14.257-1.8352-36.982 3.9585-26.274 6.6988-82.397 42.892-86.724 55.927-1.7705 5.3334-16.569 89.267-16.569 93.976 0 5.0139 7.4183-0.23131 33.879-23.955z" fill="#eb9ea1" />
    <path d="m345.27 482.77c-8.2762-4.8369-22.698-18.42-36.216-34.108l-22.463-26.07-12.106 5.3563c-25.718 11.379-50.681 15.777-82.085 14.464-28.075-1.174-30.142-0.87137-32.292 4.727-5.3617 13.961-47.078 22.142-55.73 10.93-4.2095-5.4553-4.2411-7.2447-0.50675-28.721l3.9825-22.903-10.505-16.677c-16.434-26.09-23.597-54.972-23.532-94.884 0.04285-26.209 1.2314-36.979 5.8418-52.933 9.5409-33.017 37.727-84.325 64.963-118.26 9.9553-12.402 13.277-19.224 16.022-32.903 5.6248-28.035 7.0288-26.413-22.789-26.316-24.978 0.08121-26.813-0.34575-35.73-8.3135-10.664-9.5295-18.922-26.463-20.588-42.22-0.62239-5.8852-0.82064-10.7-0.44056-10.7 0.38008 0 4.1574 2.0281 8.3941 4.5069 16.99 9.9404 35.106 11.661 80.851 7.677 23.968-2.0871 46.447-3.9998 49.954-4.2503 6.2222-0.44453 6.3614-4e-3 5.7675 18.24-0.33474 10.282-0.27084 18.695 0.142 18.695s10.674-4.693 22.803-10.429c25.683-12.146 58.115-19.483 86.119-19.483 15.244 0 20.134-1.0318 21.265-4.4868 2.0534-6.2758 6.6663-5.6057 16.976 2.4662 4.8846 3.8242 14.046 9.324 20.358 12.222 23.799 10.926 56.11 29.665 56.11 32.542 0 2.8625-16.606 1.8052-42.336-2.6956-9.881-1.7284-10.761-1.2496-16.01 8.712-10.912 20.708-78.858 91.881-126.91 132.94-13.007 11.114-23.701 21.648-23.764 23.409-0.32097 8.9628 68.623 138.88 73.7 138.88 6.8758 0 39.171-29.98 64.792-60.146 16.617-19.565 30.676-35.573 31.243-35.573 3.0184 0-0.25897 10.627-11.999 38.907-11.768 28.347-15.496 34.219-38.493 60.634l-25.463 29.247 16.282 18.723c18.348 21.099 30.341 28.971 44.141 28.971 9.946 0 32.05-11.421 40.957-21.162 6.9783-7.6322 13.863-7.4618 13.863 0.34295 0 18.512-20.026 44.064-46.86 59.79-20.279 11.885-38.372 12.151-57.708 0.85028zm-113.16-86.362c35.715-8.652 35.094-3.5328 6.6219-54.607-13.647-24.481-29.404-54.104-35.015-65.829-5.611-11.725-11.335-20.91-12.719-20.41-2.8033 1.0121-24.632 125.67-23.625 134.92 0.36449 3.3476 3.3715 6.7463 7.0142 7.9277 11.391 3.6942 38.029 2.7715 57.724-1.9996zm-109.12-81.333c1.4198-7.8145 5.5584-33.053 9.1969-56.085s7.1033-44.569 7.6996-47.859c2.1891-12.079-8.0504 6.5568-16.168 29.427-10.381 29.246-14.589 59.117-10.709 76.017 1.6048 6.9897 3.9262 12.708 5.1586 12.708s3.4025-6.3937 4.8223-14.208zm121.54-139.83c26.71-24.831 64-68.801 80.772-95.239 8.1786-12.892 14.87-24.67 14.87-26.173 0-4.155-16.026-3.2733-36.478 2.0069-21.617 5.5809-59.003 26.125-77.017 42.323l-12.752 11.466-8.188 46.263c-11.447 64.678-11.689 62.823 6.2752 48.028 8.0658-6.643 22.699-19.547 32.518-28.676z" fill="#a19f9f" />
    <path d="m348.52 480.65c-7.9242-4.4262-22.602-17.931-36.209-33.315l-22.883-25.872-13.525 5.8889c-27.609 12.021-50.169 16.147-82.568 15.098-26.481-0.8568-31.402-0.27429-35.187 4.1639-5.5244 6.4779-27.515 14.283-40.243 14.283-13.293 0-15.334-5.5662-11.291-30.795l3.2252-20.129-11.541-18.602c-17.544-28.278-24.547-55.878-24.481-96.487 0.04285-26.209 1.2314-36.979 5.8418-52.933 9.9094-34.292 38.208-85.228 67.024-120.64 14.678-18.037 19.826-31.622 19.991-52.754l0.0624-7.9691-26.142 0.49104c-22.872 0.42962-27.259-0.32498-35.069-6.0326-10.425-7.6188-16.696-18.978-20.001-36.231l-2.3667-12.353 10.338 6.1852c14.091 8.4309 41.177 10.18 87.616 5.6594 20.85-2.0298 39.057-3.8942 40.46-4.1431 1.5248-0.27055 2.2361 6.4639 1.7688 16.747-0.42992 9.4597 0.20783 17.199 1.4172 17.199s12.122-4.693 24.251-10.429c26.088-12.338 58.186-19.483 87.517-19.483 11.657 0 21.901-1.3411 22.765-2.9802 0.99664-1.8913 4.1195-1.4343 8.5466 1.2506 3.8368 2.327 13.24 6.8201 20.897 9.9846 20.516 8.48 61.104 31.101 61.104 34.056 0 3.5285-10.476 3.2309-33.982-0.96538l-19.954-3.5623-10.651 14.76c-21.94 30.402-71.154 81.697-117.85 122.83-16.087 14.172-29.25 27.732-29.25 30.134 0 10.596 65.361 134.1 72.722 137.41 7.5053 3.3778 33.408-18.806 65.99-56.514 18.124-20.976 33.35-38.138 33.836-38.138 2.8625 0-0.59288 11.08-12.134 38.907-11.877 28.638-15.332 34.036-39.455 61.643l-26.438 30.256 17.138 19.392c9.4262 10.665 20.812 21.615 25.301 24.333 16.169 9.7885 39.607 4.1647 60.487-14.513 19.106-17.091 11.818 10.698-8.3961 32.013-26.782 28.241-54.039 35.915-78.68 22.151zm-104.41-87.142c9.5897-2.8916 17.982-6.9259 18.649-8.9652 0.66725-2.0393-7.7686-19.682-18.746-39.205-10.978-19.523-26.83-49.27-35.227-66.103-8.3971-16.833-16.625-30.63-18.284-30.66-3.8956-0.0693-3.7341-0.82013-16.239 75.5-11.313 69.045-11.277 71.902 0.94952 75.101 10.92 2.8569 51.772-0.50324 68.897-5.667zm-119.58-70.955c7.2267-39.161 19.388-116.75 18.469-117.83-2.3806-2.7919-11.767 14.679-19.323 35.968-10.338 29.125-14.537 59.01-10.663 75.887 3.1747 13.827 9.4663 17.093 11.517 5.9783zm90.143-116.43c31.015-26.596 66.901-62.95 86.967-88.104 19.537-24.49 41.085-58.199 41.085-64.272 0-4.1638-18.926-3.1094-39.029 2.1744-28.559 7.5062-60.855 26.72-89.232 53.086-3.2848 3.052-6.9482 18.369-13.077 54.675-4.6826 27.739-8.0131 51.445-7.401 52.679 2.0987 4.231 6.1524 2.2246 20.687-10.239z" fill="#e15b5f" />
    <path d="m348.2 480.48c-8.6747-4.8424-22.098-17.393-36.875-34.478l-23.235-26.864-24.336 9.62c-23.288 9.2056-26.066 9.6218-64.506 9.6625-35.53 0.0377-40.17 0.60969-40.17 4.9524 5.6e-4 6.5088-17.74 14.736-36.077 16.732-19.105 2.079-20.983-1.6738-16.045-32.071 3.1295-19.263 3.115-22.946-0.11141-28.293-2.0402-3.3806-7.1287-11.809-11.308-18.731-9.0759-15.031-17.796-46.395-19.786-71.17-4.2355-52.715 18.201-113.43 65.214-176.48 18.338-24.594 22.548-34.172 24.772-56.366l1.6461-16.426-26.469 0.50129c-23.215 0.43968-27.566-0.30056-35.395-6.0223-10.425-7.6188-16.696-18.978-20.001-36.231l-2.3667-12.353 10.338 6.1852c14.091 8.4309 41.177 10.18 87.616 5.6594 20.85-2.0298 39.057-3.8942 40.46-4.1431 1.5579-0.27641 2.2141 7.4051 1.6861 19.738-0.47541 11.105-0.31734 20.191 0.35127 20.191 0.6686 0 8.5177-4.0073 17.442-8.9052 23.887-13.109 53.401-21.105 85.089-23.053 17.695-1.0879 29.496-3.1884 31.956-5.688 3.2851-3.3377 5.6121-2.823 14.746 3.2614 5.9647 3.9735 23.479 13.551 38.921 21.282 30.462 15.253 37.359 21.141 21.25 18.144-5.4751-1.0186-16.267-2.7014-23.982-3.7396-13.62-1.8328-14.158-1.6241-18.533 7.1761-9.8775 19.871-72.038 86.023-123.1 131-16.087 14.172-29.25 27.732-29.25 30.134 0 11.83 69.649 141.47 76.005 141.47 7.8564 0 41.31-29.731 66.183-58.817 14.378-16.814 26.142-29.896 26.142-29.071s-4.5642 12.716-10.143 26.424c-11.198 27.518-26.853 50.561-49.155 72.354-8.0658 7.8817-14.665 15.838-14.665 17.682 0 4.8501 32.969 41.424 42.594 47.251 16.169 9.7885 39.607 4.1647 60.487-14.513 19.106-17.091 11.818 10.698-8.3961 32.013-26.919 28.385-54.015 35.924-78.994 21.981zm-108.91-82.463c12.555-3.255 23.918-7.1973 25.251-8.7607 1.5312-1.7958-6.0396-18.041-20.561-44.12-12.642-22.703-29.169-53.696-36.728-68.875-14.002-28.118-18.971-33.004-21.365-21.01-2.3558 11.803-22.282 132.18-22.64 136.77-0.95249 12.223 39.666 15.425 76.043 5.9935zm-116.46-70.976c4.0165-12.575 21.876-123.29 20.205-125.25-3.1195-3.6586-7.741 3.436-17.232 26.453-11.219 27.21-18.972 63.473-17.022 79.62 1.6904 13.997 6.1515 27.406 9.118 27.406 1.2673 0 3.4865-3.7016 4.9315-8.2258zm91.83-120.91c31.015-26.596 66.901-62.95 86.967-88.104 21.409-26.837 41.085-58.333 41.085-65.767 0-9.6339-41.532-2.3903-72.065 12.569-19.438 9.5232-56.779 38.098-59.226 45.322-3.0422 8.9796-18.624 103.85-17.447 106.22 2.0987 4.231 6.1524 2.2246 20.687-10.239z" fill="#d8242a" />
    <path d="m348.48 480.63c-14.181-7.9204-60.159-58.027-55.4-60.376 1.4546-0.7178 10.522-6.7038 20.15-13.302l17.505-11.997 18.107 20.563c9.9589 11.31 21.78 22.782 26.269 25.494 16.18 9.7758 39.613 4.1494 60.487-14.523 19.106-17.091 11.818 10.698-8.3961 32.013-26.801 28.26-54.036 35.916-78.722 22.128zm-242.44-24.593c-3.2278-7.0736 2.2685-44.798 6.3877-43.843 1.539 0.35697 7.7896 4.5867 13.89 9.3993 6.1006 4.8126 15.97 10.454 21.932 12.537 7.3408 2.5646 10.839 5.4601 10.839 8.971 0 6.8003-17.321 14.965-36.078 17.006-12.309 1.3395-14.772 0.74879-16.971-4.0707zm40.009-75.505c-6.2485-6.4507-14.62-18.751-18.603-27.334-6.4842-13.972-6.9462-16.744-4.4148-26.488 2.63-10.123 10.246-56.528 27.314-166.43 3.8326-24.677 8.526-50.12 10.43-56.538 1.9038-6.4184 4.1719-18.758 5.0401-27.422l1.5786-15.752-26.469 0.50129c-22.434 0.42487-27.759-0.41069-34.934-5.4811-10.202-7.2098-17.203-19.756-20.433-36.617l-2.3964-12.509 10.338 6.1852c14.091 8.4309 41.177 10.18 87.616 5.6594 20.85-2.0298 39.057-3.8942 40.46-4.1431 5.4686-0.97028-1.2122 62.348-10.209 96.762-1.9356 7.4032-6.4912 31.632-10.124 53.842s-7.0538 42.819-7.6028 45.799c-2.9539 16.03 11.971 5.8802 61.092-41.546 46.594-44.986 75.213-83.858 90.717-123.22 13.682-34.734 13.593-34.634 24.941-27.809 11.151 6.7076 19.515 16.744 23.035 27.644 2.196 6.7989 1.4725 9.7973-4.8242 19.992-15.429 24.98-71.452 84.121-121.2 127.94-16.087 14.172-29.25 27.732-29.25 30.134 0 6.0959 27.226 61.287 51.221 103.83 14.541 25.784 19.384 36.667 17.501 39.329-3.7545 5.3056-38.59 19.919-40.803 17.117-4.3839-5.5503-43.271-76.662-57.285-104.75-13.194-26.449-21.02-36.633-21.88-28.47-2.2926 21.761-24.753 139.72-26.745 140.47-1.5139 0.56432-7.8649-4.2518-14.113-10.702z" fill="#5d5c5b" />
    <path d="m348.72 477.32c-13.56-7.9249-40.634-34.943-49.272-49.17l-5.1267-8.444 34.281-23.15 16.619 19.794c32.599 38.827 55.604 42.418 89.945 14.043 6.9984-5.7828 7.0138-5.7816 7.0138 0.53303 0 9.6312-23.336 35.006-41.42 45.04-20.211 11.214-34.532 11.587-52.04 1.3546zm-238.95-21.407c-3.6196-4.245-0.37017-42.874 3.6065-42.874 1.1489 0 7.0242 3.8932 13.056 8.6515 6.032 4.7583 15.796 10.338 21.698 12.4 8.8721 3.0993 10.332 4.6213 8.4312 8.7875-4.1596 9.1153-41.31 19.464-46.792 13.035zm36.192-75.462c-13.996-14.449-26.861-40.643-22.788-46.399 4.1201-5.8223 23.601-121.55 22.065-131.08-1.555-9.6562 11.841-90.101 15.977-95.946 3.7556-5.3072 10.37-42.571 8.2648-46.565-1.0011-1.8997-12.182-2.8685-28.765-2.4923-23.905 0.54231-27.986-0.12049-34.35-5.5789-7.2733-6.2375-21.006-32.479-18.522-35.392 0.73453-0.86146 7.0205 0.52297 13.969 3.0765 10.13 3.7229 20.214 4.2902 50.89 2.8631 21.041-0.97883 45.3-2.6175 53.908-3.6416l15.651-1.8619-0.87905 22.071c-1.1439 28.72-5.8275 59.188-10.419 67.779-5.6213 10.517-22.285 111.35-19.032 115.16 3.3048 3.8759 19.528-8.3981 55.395-41.91 46.81-43.736 97.936-111.23 97.936-129.29 0-8.6076 9.5074-29.927 14.31-32.088 6.6028-2.9716 27.36 11.536 31.96 22.337 4.006 9.4066 3.9509 10.167-1.2752 17.59-25.399 36.078-72.464 86.079-122.78 130.44-16.959 14.952-30.977 29.522-31.438 32.676-1.0284 7.0337 21.32 54.105 49.922 105.15 11.849 21.145 20.569 39.588 19.379 40.983s-9.7271 5.8762-18.972 9.9572l-16.808 7.42-20.39-36.438c-11.214-20.041-28.325-52.25-38.024-71.576-9.6986-19.326-19.097-35.142-20.885-35.147-4.8121-0.0132-6.4251 7.0168-18.695 81.476-6.1653 37.414-11.909 68.036-12.763 68.05-0.85457 0.015-6.6318-5.2171-12.838-11.624z" fill="#592a2b" />
    <path d="m356.74 481.13c-13.244-5.5826-27.504-17.583-44.365-37.334l-16.31-19.105 34.614-23.723 14.305 15.872c27.437 30.442 39.392 36.696 60.195 31.493 6.404-1.6019 17.349-7.4153 24.322-12.919 6.973-5.5034 12.678-8.3906 12.678-6.416 0 8.0392-13.488 25.999-28.15 37.482-22.621 17.716-39.673 22.076-57.29 14.65zm-247.8-27.876c-1.4981-4.5786 0.6909-31.076 2.7685-33.512 0.58521-0.68636 6.4269 2.4381 12.982 6.9432 6.5546 4.5051 15.89 9.7925 20.744 11.75 4.8547 1.9574 8.8555 4.7838 8.8906 6.2809 0.085 3.6149-24.915 12.778-35.493 13.009-5.3277 0.11636-8.9223-1.5082-9.8915-4.4703zm36.971-79.51c-6.0846-7.1781-13.195-18.642-15.8-25.475l-4.7376-12.424 18.098-108.72c9.9538-59.796 20.322-120.65 23.04-135.23 2.7185-14.58 4.3234-28.401 3.5665-30.715-1.0821-3.3072-6.9004-4.0345-27.228-3.4034-31.655 0.9827-40.417-3.5146-49.764-25.543-3.3326-7.8542-5.5745-14.849-4.9819-15.544s6.6579 0.70605 13.478 3.1135c14.876 5.2509 46.915 5.6082 88.425 0.98628 16.749-1.865 31.044-2.6986 31.765-1.8525s-6.2028 45.028-15.387 98.182c-9.1843 53.154-16.699 98.45-16.699 100.66 0 10.333 8.9454 6.4105 32.552-14.274 64.968-56.928 106.67-108.49 127.49-157.63 6.4467-15.218 12.983-27.669 14.526-27.669 5.1325 0 21.068 17.569 24.341 26.837 2.9499 8.3523 2.6007 10.197-4.0665 21.48-12.453 21.075-66.644 77.677-118.33 123.59-16.132 14.331-30.147 27.741-31.145 29.8-2.2738 4.6915 22.579 57.568 48.597 103.4 10.741 18.919 19.862 35.848 20.269 37.619 0.60438 2.632-30.124 19.214-35.605 19.214-2.0859 0-43.493-74.746-60.896-109.93-9.223-18.644-15.179-27.669-18.261-27.669-2.5156 0-4.5739 0.41418-4.5739 0.92039 0 7.6854-23.44 138.44-25.185 140.49-1.5364 1.8019-6.4887-1.944-13.49-10.204z" fill="#2b2a29" />
  </g>
</svg>